<?xml version="1.0" encoding="utf-8"?>
<!-- Generator: Adobe Illustrator 18.1.0, SVG Export Plug-In . SVG Version: 6.00 Build 0)  -->
<!DOCTYPE svg PUBLIC "-//W3C//DTD SVG 1.1//EN" "http://www.w3.org/Graphics/SVG/1.1/DTD/svg11.dtd">
<svg version="1.1" id="Layer_1" xmlns="http://www.w3.org/2000/svg" xmlns:xlink="http://www.w3.org/1999/xlink" x="0px" y="0px"
	 viewBox="0 0 362.8 110.3" enable-background="new 0 0 362.8 110.3" xml:space="preserve">
<g>
	<path fill="#09729F" d="M67.1,70.9l7.4,3L74,75.8H53.6L53,73.9l3.9-1.9c1.8-0.9,2.8-1.7,2.7-3.4l-1.9-42.2L41.2,74.1l-5.3,1.7
		l-1.6-0.9L18.1,26.6l-2.4,44.3l6.5,3l-0.5,1.9H3.7l-0.5-1.9l4.7-2c2.5-1,2.6-1.7,2.7-3.3l2.2-43.9l-7.4-3l0.5-1.9h17.4l1.1,0.9
		l14.5,44.9l15.2-45.8H72l0.5,1.9l-4.7,2c-1.9,0.8-2.8,1.5-2.7,3.3L67.1,70.9z"/>
	<path fill="#09729F" d="M94.2,45.5c9.1,0,19.4-1,19.4-1l0.9,1l-0.9,4.8c0,0-10.2-0.6-19.4-0.6v21.6l18.7-0.3l4.1-7.6l2.6,0.6v11.8
		H80l-0.5-1.9l4.7-2c2.2-0.9,2.7-1.6,2.7-3.3V24.8l-7.4-3l0.5-1.9h39.2v11.8l-2.6,0.6l-4.1-7.6l-15.9-0.3c-1.7,0-2.3,1.1-2.3,2.6
		V45.5z"/>
	<path fill="#09729F" d="M168.5,31.6l-2.1,0.6l-4.3-8l-9.4-0.3c-1.5-0.1-2.3,1-2.3,2.2v44.7l7.4,3l-0.5,1.9h-21.1l-0.5-1.9l4.7-2
		c2.2-0.9,2.7-1.6,2.7-3.3V23.9l-11.7,0.3l-4.3,8l-2.1-0.6V19.8h43.5V31.6z"/>
	<path fill="#09729F" d="M187.8,70.9l7.4,3l-0.5,1.9h-21.1l-0.5-1.9l4.7-2c2.2-0.9,2.7-1.6,2.7-3.3V24.8l-7.4-3l0.5-1.9h21.1
		l0.5,1.9l-4.7,2c-2.2,0.9-2.7,1.6-2.7,3.3V70.9z"/>
	<path fill="#09729F" d="M229.3,26c-1.1-0.6-3.9-1.5-8-1.5c-7.1,0-10.1,2.8-10.6,3.2c-0.4,0.7-1,2.7-1,4.7c0,2.7,0.9,7,7.1,9.3
		L228,46c7,2.7,11,7.9,11,15.2c0,10.4-8.3,15.2-18.8,15.2c-10,0-16.1-4.3-19-7.1l5.5-9.4l2.1,0.6l1.3,8.3c0.9,0.6,4.1,2.2,9.8,2.2
		c6.5,0,12.2-2.2,12.2-8.7c0-4.8-3.1-7.5-9.2-9.8l-9.9-3.8c-6.5-2.5-10.1-7.1-10.1-13.9c0-10.5,8.4-15.7,18.9-15.7
		c9.6,0,13.9,4.4,16.2,7.1l-6.1,8.5l-2.1-0.6L229.3,26z"/>
</g>
<g>
	<path d="M7.2,91.9c2.6,0,5.6-0.3,5.6-0.3l0.3,0.3l-0.3,1.4c0,0-3-0.2-5.6-0.2v6.3l5.4-0.1l1.2-2.2l0.7,0.2v3.4H3.1L3,100.1l1.4-0.6
		c0.6-0.2,0.8-0.5,0.8-0.9V85.9L3,85l0.1-0.5h11.3v3.4l-0.7,0.2l-1.2-2.2l-4.6-0.1c-0.5,0-0.7,0.3-0.7,0.7V91.9z"/>
	<path d="M26.6,99.4l1.7,0.8l-0.1,0.5l-2.4,0.2l-0.3-0.1l-0.7-0.7l-0.1-0.1c-0.3,0.2-1.8,0.9-3.5,0.9c-3.1,0-4.5-2.8-4.5-5.8
		c0-4,2.5-5.9,5.6-5.9c1,0,2.3,0.2,2.3,0.2v-4l-1.7-0.3l-0.1-0.5l3.4-1.2l0.5,0.2V99.4z M24.6,91.2c0,0-1-0.3-2.5-0.3
		c-1.1,0-2,0.2-2.4,0.4c-0.4,0.5-0.9,1.5-0.9,3.6c0,3.2,1.3,4.4,3.3,4.4c0.8,0,1.9-0.2,2.5-0.3V91.2z"/>
	<path d="M39.9,99.4l1.7,0.6l-0.1,0.5l-2.1,0.4l-0.5-0.2L38,100l-0.1-0.1c-0.5,0.3-1.9,0.9-3.5,0.9c-2.3,0-3.6-1.3-3.6-3.8v-5.8
		L29,91l-0.1-0.5l3.4-1.2l0.5,0.2v7.3c0,1.7,0.7,2.4,2.5,2.4c0.9,0,2-0.2,2.6-0.3v-7.6L36.1,91L36,90.5l3.4-1.2l0.5,0.2V99.4z"/>
	<path d="M49.8,91c-0.3-0.1-1-0.1-1.5-0.1c-0.7,0-1.8,0.2-2.3,0.4c-0.4,0.5-0.9,1.6-0.9,3.4c0,3,1.6,4.6,3.8,4.6
		c0.9,0,2.1-0.2,3-0.6l0.3,0.6c-0.4,0.4-1.8,1.6-4,1.6c-3,0-5.2-2.1-5.2-5.7c0-4,2.6-5.9,5.4-5.9c2.5,0,3.4,1.5,3.6,1.8L50.6,93
		L50,92.9L49.8,91z"/>
	<path d="M63.3,99.9l-0.1,0.5l-2.1,0.4l-0.5-0.2l-0.8-0.7l-0.1-0.1c-0.8,0.4-1.8,0.9-2.9,0.9c-2,0-3-1.4-3-3c0-1.8,1.4-2.8,5.9-3.1
		l0-1.6c0-1.4-0.6-2.5-2.2-2.5c-0.5,0-1.1,0.1-1.5,0.2l-0.2,1.9L55.1,93l-1.4-1.9c0.5-0.5,1.9-1.8,4.3-1.8c2.3,0,3.7,1.3,3.7,4.5
		c0,1-0.1,5.6-0.1,5.6L63.3,99.9z M59.6,98.9l0-2.9c-2.4,0.1-3.6,0.6-4,1.1c0,0.1,0,0.2,0,0.3c0,1.5,1.1,1.9,1.9,1.9
		C58.3,99.3,59.3,99,59.6,98.9z"/>
	<path d="M65.7,90.7H64l-0.1-0.5l1.9-0.8l1.1-2.3l0.9,0.2v2.3h3l0.3,0.3l-0.2,0.9l-3-0.1v7.3c0,1.2,0.4,1.8,1.7,1.8h1.4l0.1,0.7
		c0,0-1.6,0.5-2.7,0.5c-1.7,0-2.5-1-2.5-2.4V90.7z"/>
	<path d="M75.7,99.4l2,0.8l-0.1,0.5h-5.6l-0.1-0.5l1.1-0.5c0.6-0.2,0.8-0.5,0.8-0.9v-7.5L71.9,91l-0.1-0.5l3.4-1.2l0.5,0.2V99.4z
		 M74.6,83.9c0.8,0,1.4,0.6,1.4,1.4c0,0.8-0.6,1.4-1.4,1.4c-0.8,0-1.4-0.6-1.4-1.4C73.2,84.5,73.8,83.9,74.6,83.9z"/>
	<path d="M84.3,89.3c3,0,5.2,2.1,5.2,5.7c0,4-2.6,5.9-5.5,5.9c-3,0-5.2-2.1-5.2-5.7C78.8,91.1,81.4,89.3,84.3,89.3z M84.3,99.3
		c0.8,0,1.7-0.2,2.1-0.4c0.3-0.4,0.9-1.5,0.9-3.6c0-2.8-1.1-4.5-3.4-4.5c-0.8,0-1.7,0.2-2.1,0.4c-0.3,0.4-0.9,1.5-0.9,3.6
		C80.9,97.7,82,99.3,84.3,99.3z"/>
	<path d="M97.5,91c-0.9,0-2,0.2-2.6,0.3v8l2,0.8l-0.1,0.5h-5.6l-0.1-0.5l1.1-0.5c0.6-0.2,0.8-0.5,0.8-0.9v-7.5L91.2,91L91,90.5
		l3.2-1.2l0.5,0.2l0,0.7l0.1,0c0.5-0.3,1.9-0.9,3.5-0.9c2.3,0,3.6,1.3,3.6,3.8v6.3l2,0.8l-0.1,0.5h-5.6l-0.1-0.5l1.1-0.5
		c0.6-0.2,0.8-0.5,0.8-0.9v-5.3C100,91.7,99.2,91,97.5,91z"/>
	<path d="M114.6,93.8v5.3l2.4,1l-0.1,0.5h-6.4l-0.1-0.5l1.4-0.6c0.6-0.2,0.8-0.5,0.8-0.9V85.9l-2.1-0.9l0.1-0.5c0,0,4-0.2,5.5-0.2
		c4.4,0,6.4,1.5,6.4,4.7c0,3.7-2.8,4.9-6.2,4.9C115.8,93.9,115.2,93.9,114.6,93.8z M115.3,85.7c-0.4,0-0.7,0.3-0.7,0.6v6.2
		c0.3,0.1,0.9,0.1,1.5,0.1c1.5,0,2.6-0.3,3.1-0.6c0.5-0.4,0.9-1.1,0.9-2.6c0-2-0.8-3.8-3.7-3.8H115.3z"/>
	<path d="M133.5,99.9l-0.1,0.5l-2.1,0.4l-0.5-0.2l-0.8-0.7l-0.1-0.1c-0.8,0.4-1.8,0.9-2.9,0.9c-2,0-3-1.4-3-3c0-1.8,1.4-2.8,5.9-3.1
		l0-1.6c0-1.4-0.6-2.5-2.2-2.5c-0.5,0-1.1,0.1-1.5,0.2l-0.2,1.9l-0.6,0.2l-1.4-1.9c0.5-0.5,1.9-1.8,4.3-1.8c2.3,0,3.7,1.3,3.7,4.5
		c0,1-0.1,5.6-0.1,5.6L133.5,99.9z M129.8,98.9l0-2.9c-2.4,0.1-3.6,0.6-4,1.1c0,0.1,0,0.2,0,0.3c0,1.5,1.1,1.9,1.9,1.9
		C128.5,99.3,129.4,99,129.8,98.9z"/>
	<path d="M138.1,90.4L138.1,90.4c0.2,0,2-1,3.1-1.1c0.7,0.2,1.6,1,1.9,1.5l-1.6,2.2l-0.6-0.2v-1.9c-1,0-2.4,0.4-2.8,0.5v7.9l2.2,0.8
		l-0.1,0.5h-5.8l-0.1-0.5l1.1-0.5c0.6-0.2,0.8-0.5,0.8-0.9v-7.5l-1.7-0.3l-0.1-0.5l3.2-1.2l0.5,0.2L138.1,90.4z"/>
	<path d="M145.5,90.7h-1.7l-0.1-0.5l1.9-0.8l1.1-2.3l0.9,0.2v2.3h3l0.3,0.3l-0.2,0.9l-3-0.1v7.3c0,1.2,0.4,1.8,1.7,1.8h1.4l0.1,0.7
		c0,0-1.6,0.5-2.7,0.5c-1.7,0-2.5-1-2.5-2.4V90.7z"/>
	<path d="M158,91c-0.9,0-2,0.2-2.6,0.3v8l2,0.8l-0.1,0.5h-5.6l-0.1-0.5l1.1-0.5c0.6-0.2,0.8-0.5,0.8-0.9v-7.5l-1.7-0.3l-0.1-0.5
		l3.2-1.2l0.5,0.2l0,0.7l0.1,0c0.5-0.3,1.9-0.9,3.5-0.9c2.3,0,3.6,1.3,3.6,3.8v6.3l2,0.8l-0.1,0.5h-5.6l-0.1-0.5l1.1-0.5
		c0.6-0.2,0.8-0.5,0.8-0.9v-5.3C160.5,91.7,159.8,91,158,91z"/>
	<path d="M175,93.9v0.8l-0.4,0.4h-7c0.1,2.5,1.5,4.2,3.8,4.2c0.9,0,2.1-0.3,2.9-0.6l0.3,0.6c-0.4,0.4-1.8,1.6-4,1.6
		c-3,0-5.2-2.1-5.2-5.7c0-4,2.6-5.9,5.4-5.9C173.5,89.3,175,91.1,175,93.9z M168.6,91.3c-0.4,0.5-0.8,1.7-0.9,2.8l5.3-0.1
		c0-2.1-0.9-3-2.5-3C169.9,90.9,169.1,91,168.6,91.3z"/>
	<path d="M180.3,90.4L180.3,90.4c0.2,0,2-1,3.1-1.1c0.7,0.2,1.6,1,1.9,1.5l-1.6,2.2l-0.6-0.2v-1.9c-1,0-2.4,0.4-2.8,0.5v7.9l2.2,0.8
		l-0.1,0.5h-5.8l-0.1-0.5l1.1-0.5c0.6-0.2,0.8-0.5,0.8-0.9v-7.5l-1.7-0.3l-0.1-0.5l3.2-1.2l0.5,0.2L180.3,90.4z"/>
	<path d="M192.2,90.9c-0.2-0.1-0.7-0.2-1.5-0.2c-1.2,0-1.9,0.4-2,0.6c-0.1,0.2-0.2,0.5-0.2,0.8c0,0.5,0.2,1.1,1.3,1.5l2.5,0.9
		c1.4,0.5,2.4,1.6,2.4,3.2c0,2.2-2,3.3-4.1,3.3c-2.2,0-3.7-1.1-4.1-1.7l1.3-2.1l0.6,0.2l0.1,1.7c0.3,0.2,1,0.5,2.2,0.5
		c1,0,2.3-0.2,2.3-1.5c0-0.8-0.5-1.3-1.7-1.7l-2.3-0.7c-1.4-0.5-2.1-1.7-2.1-2.9c0-2.2,2.2-3.3,4.1-3.3c2.2,0,3.4,1.4,3.5,1.6
		l-1.4,1.9l-0.6-0.2L192.2,90.9z"/>
	<path d="M202.3,91c-0.9,0-2,0.2-2.6,0.3v8l2,0.8l-0.1,0.5h-5.6l-0.1-0.5l1.1-0.5c0.6-0.2,0.8-0.5,0.8-0.9V85.5l-1.7-0.3l-0.1-0.5
		l3.4-1.2l0.5,0.2v6.5c0.5-0.3,1.9-0.9,3.5-0.9c2.3,0,3.6,1.3,3.6,3.8v6.3l2,0.8l-0.1,0.5H203l-0.1-0.5l1.1-0.5
		c0.6-0.2,0.8-0.5,0.8-0.9v-5.3C204.8,91.7,204,91,202.3,91z"/>
	<path d="M213.3,99.4l2,0.8l-0.1,0.5h-5.6l-0.1-0.5l1.1-0.5c0.6-0.2,0.8-0.5,0.8-0.9v-7.5l-1.7-0.3l-0.1-0.5l3.4-1.2l0.5,0.2V99.4z
		 M212.2,83.9c0.8,0,1.4,0.6,1.4,1.4c0,0.8-0.6,1.4-1.4,1.4c-0.8,0-1.4-0.6-1.4-1.4C210.8,84.5,211.4,83.9,212.2,83.9z"/>
	<path d="M219.7,90.2L219.7,90.2c0.5-0.2,2-0.9,3.6-0.9c3.1,0,4.5,2.8,4.5,5.8c0,4-2.6,5.9-5.5,5.9c-0.7,0-1.7-0.1-2.4-0.2v4.4
		l2,0.8l-0.1,0.5H216l-0.1-0.5l1.1-0.5c0.6-0.2,0.8-0.5,0.8-0.9V91.3L216,91l-0.1-0.5l3.2-1.2l0.5,0.2L219.7,90.2z M219.8,99
		c0,0,1,0.3,2.5,0.3c1.1,0,2-0.2,2.4-0.4c0.4-0.5,0.9-1.5,0.9-3.6c0-3.2-1.3-4.4-3.3-4.4c-0.8,0-1.9,0.2-2.5,0.3V99z"/>
	<path d="M235.3,90.9c-0.2-0.1-0.7-0.2-1.5-0.2c-1.2,0-1.9,0.4-2,0.6c-0.1,0.2-0.2,0.5-0.2,0.8c0,0.5,0.2,1.1,1.3,1.5l2.5,0.9
		c1.4,0.5,2.4,1.6,2.4,3.2c0,2.2-2,3.3-4.1,3.3c-2.2,0-3.7-1.1-4.1-1.7l1.3-2.1l0.6,0.2l0.1,1.7c0.3,0.2,1,0.5,2.2,0.5
		c1,0,2.3-0.2,2.3-1.5c0-0.8-0.5-1.3-1.7-1.7l-2.3-0.7c-1.4-0.5-2.1-1.7-2.1-2.9c0-2.2,2.2-3.3,4.1-3.3c2.2,0,3.4,1.4,3.5,1.6
		l-1.4,1.9l-0.6-0.2L235.3,90.9z"/>
</g>
<path fill="#09729F" d="M359.8,55.5c0,17.7-14.4,32.1-32.1,32.1c-17.7,0-32.1-14.4-32.1-32.1c0-17.7,14.4-32.1,32.1-32.1
	C345.4,23.4,359.8,37.8,359.8,55.5z M327.7,29.1c-14.6,0-26.4,11.8-26.4,26.4c0,14.6,11.8,26.4,26.4,26.4
	c14.6,0,26.4-11.8,26.4-26.4C354.1,40.9,342.3,29.1,327.7,29.1z"/>
<path fill="#09729F" d="M338.2,76.5c0,17.7-14.4,32.1-32.1,32.1c-17.7,0-32.1-14.4-32.1-32.1c0-17.7,14.4-32.1,32.1-32.1
	C323.8,44.4,338.2,58.7,338.2,76.5z M306.1,50.1c-14.6,0-26.4,11.8-26.4,26.4c0,14.6,11.8,26.4,26.4,26.4
	c14.6,0,26.4-11.8,26.4-26.4C332.4,61.9,320.6,50.1,306.1,50.1z"/>
<path fill="#09729F" d="M338.2,33.9c0,17.7-14.4,32.1-32.1,32.1C288.4,66,274,51.6,274,33.9c0-17.7,14.4-32.1,32.1-32.1
	C323.8,1.7,338.2,16.1,338.2,33.9z M306.1,7.5c-14.6,0-26.4,11.8-26.4,26.4c0,14.6,11.8,26.4,26.4,26.4c14.6,0,26.4-11.8,26.4-26.4
	C332.4,19.3,320.6,7.5,306.1,7.5z"/>
<path fill="#09729F" d="M317.2,55.5c0,17.7-14.4,32.1-32.1,32.1c-17.7,0-32.1-14.4-32.1-32.1c0-17.7,14.4-32.1,32.1-32.1
	C302.8,23.4,317.2,37.8,317.2,55.5z M285.1,29.1c-14.6,0-26.4,11.8-26.4,26.4c0,14.6,11.8,26.4,26.4,26.4
	c14.6,0,26.4-11.8,26.4-26.4C311.4,40.9,299.6,29.1,285.1,29.1z"/>
</svg>
